<?xml version="1.0" encoding="us-ascii" standalone="no"?><svg xmlns="http://www.w3.org/2000/svg" xmlns:xlink="http://www.w3.org/1999/xlink" contentStyleType="text/css" height="497.9167px" preserveAspectRatio="none" style="width:893px;height:497px;" version="1.1" viewBox="0 0 893 497" width="893.75px" zoomAndPan="magnify"><defs/><g><ellipse cx="445.3125" cy="20.8333" fill="#9933CC" rx="10.4167" ry="10.4167" style="stroke:#55B2DE;stroke-width:1.0416666666666667;"/><rect fill="#2A9FD6" height="37.4674" rx="4.1667" ry="4.1667" style="stroke:#55B2DE;stroke-width:1.0416666666666667;" width="150" x="370.3125" y="52.0833"/><text fill="#FFFFFF" font-family="Verdana" font-size="12.5" lengthAdjust="spacing" textLength="127.0833" x="381.7708" y="75.1444">Initialize Application</text><polygon fill="#444444" points="57.2917,110.3841,201.0417,110.3841,213.5417,122.8841,201.0417,135.3841,57.2917,135.3841,44.7917,122.8841,57.2917,110.3841" style="stroke:#777777;stroke-width:1.0416666666666667;"/><text fill="#FFFFFF" font-family="Verdana" font-size="12.5" lengthAdjust="spacing" textLength="100" x="138.5417" y="152.1952">Overall Analysis</text><text fill="#FFFFFF" font-family="Verdana" font-size="12.5" lengthAdjust="spacing" textLength="133.3333" x="62.5" y="127.2115">User selects section</text><rect fill="#2A9FD6" height="37.4674" rx="4.1667" ry="4.1667" style="stroke:#55B2DE;stroke-width:1.0416666666666667;" width="172.9167" x="42.7083" y="181.1849"/><text fill="#FFFFFF" font-family="Verdana" font-size="12.5" lengthAdjust="spacing" textLength="150" x="54.1667" y="204.246">Display Overall Analysis</text><rect fill="#2A9FD6" height="37.4674" rx="4.1667" ry="4.1667" style="stroke:#55B2DE;stroke-width:1.0416666666666667;" width="162.5" x="47.9167" y="254.0365"/><text fill="#FFFFFF" font-family="Verdana" font-size="12.5" lengthAdjust="spacing" textLength="139.5833" x="59.375" y="277.0976">Show Funding Trends</text><rect fill="#2A9FD6" height="37.4674" rx="4.1667" ry="4.1667" style="stroke:#55B2DE;stroke-width:1.0416666666666667;" width="235.4167" x="11.4583" y="326.888"/><text fill="#FFFFFF" font-family="Verdana" font-size="12.5" lengthAdjust="spacing" textLength="212.5" x="22.9167" y="349.9491">Visualize Sector/City Investments</text><polygon fill="#444444" points="309.375,110.3841,425,110.3841,437.5,122.8841,425,135.3841,309.375,135.3841,296.875,122.8841,309.375,110.3841" style="stroke:#777777;stroke-width:1.0416666666666667;"/><text fill="#FFFFFF" font-family="Verdana" font-size="12.5" lengthAdjust="spacing" textLength="105.2083" x="314.5833" y="127.2115">Startup Analysis</text><rect fill="#2A9FD6" height="37.4674" rx="4.1667" ry="4.1667" style="stroke:#55B2DE;stroke-width:1.0416666666666667;" width="219.7917" x="257.2917" y="166.6341"/><text fill="#FFFFFF" font-family="Verdana" font-size="12.5" lengthAdjust="spacing" textLength="196.875" x="268.75" y="189.6952">Prompt User to Select Startup</text><rect fill="#2A9FD6" height="37.4674" rx="4.1667" ry="4.1667" style="stroke:#55B2DE;stroke-width:1.0416666666666667;" width="170.8333" x="281.7708" y="239.4857"/><text fill="#FFFFFF" font-family="Verdana" font-size="12.5" lengthAdjust="spacing" textLength="147.9167" x="293.2292" y="262.5468">Display Startup Details</text><rect fill="#2A9FD6" height="37.4674" rx="4.1667" ry="4.1667" style="stroke:#55B2DE;stroke-width:1.0416666666666667;" width="164.5833" x="284.8958" y="312.3372"/><text fill="#FFFFFF" font-family="Verdana" font-size="12.5" lengthAdjust="spacing" textLength="141.6667" x="296.3542" y="335.3984">Show Similar Startups</text><polygon fill="#444444" points="550,110.3841,668.75,110.3841,681.25,122.8841,668.75,135.3841,550,135.3841,537.5,122.8841,550,110.3841" style="stroke:#777777;stroke-width:1.0416666666666667;"/><text fill="#FFFFFF" font-family="Verdana" font-size="12.5" lengthAdjust="spacing" textLength="108.3333" x="555.2083" y="127.2115">Investor Analysis</text><text fill="#FFFFFF" font-family="Verdana" font-size="12.5" lengthAdjust="spacing" textLength="37.5" x="686.4583" y="114.7278">Home</text><rect fill="#2A9FD6" height="37.4674" rx="4.1667" ry="4.1667" style="stroke:#55B2DE;stroke-width:1.0416666666666667;" width="222.9167" x="497.9167" y="166.6341"/><text fill="#FFFFFF" font-family="Verdana" font-size="12.5" lengthAdjust="spacing" textLength="200" x="509.375" y="189.6952">Prompt User to Select Investor</text><rect fill="#2A9FD6" height="37.4674" rx="4.1667" ry="4.1667" style="stroke:#55B2DE;stroke-width:1.0416666666666667;" width="173.9583" x="522.3958" y="239.4857"/><text fill="#FFFFFF" font-family="Verdana" font-size="12.5" lengthAdjust="spacing" textLength="151.0417" x="533.8542" y="262.5468">Display Investor Details</text><rect fill="#2A9FD6" height="37.4674" rx="4.1667" ry="4.1667" style="stroke:#55B2DE;stroke-width:1.0416666666666667;" width="214.5833" x="502.0833" y="312.3372"/><text fill="#FFFFFF" font-family="Verdana" font-size="12.5" lengthAdjust="spacing" textLength="191.6667" x="513.5417" y="335.3984">Visualize Investment Patterns</text><rect fill="#2A9FD6" height="37.4674" rx="4.1667" ry="4.1667" style="stroke:#55B2DE;stroke-width:1.0416666666666667;" width="147.9167" x="734.375" y="244.6777"/><text fill="#FFFFFF" font-family="Verdana" font-size="12.5" lengthAdjust="spacing" textLength="125" x="745.8333" y="267.7389">Display Home Page</text><rect fill="#2A9FD6" height="37.4674" rx="4.1667" ry="4.1667" style="stroke:#55B2DE;stroke-width:1.0416666666666667;" width="237.5" x="326.5625" y="406.0221"/><text fill="#FFFFFF" font-family="Verdana" font-size="12.5" lengthAdjust="spacing" textLength="214.5833" x="338.0208" y="429.0833">User Interacts with Visualizations</text><ellipse cx="445.3125" cy="475.7813" fill="none" rx="11.4583" ry="11.4583" style="stroke:#55B2DE;stroke-width:1.0416666666666667;"/><ellipse cx="445.3125" cy="475.7813" fill="none" rx="6.25" ry="6.25" style="stroke:#55B2DE;stroke-width:1.0416666666666667;"/><line style="stroke:#2A9FD6;stroke-width:3.125;" x1="445.3125" x2="445.3125" y1="31.25" y2="52.0833"/><polygon fill="#2A9FD6" points="441.1458,41.6667,445.3125,52.0833,449.4792,41.6667,445.3125,45.8333" style="stroke:#2A9FD6;stroke-width:1.0416666666666667;"/><line style="stroke:#2A9FD6;stroke-width:3.125;" x1="129.1667" x2="129.1667" y1="218.6523" y2="254.0365"/><polygon fill="#2A9FD6" points="125,243.6198,129.1667,254.0365,133.3333,243.6198,129.1667,247.7865" style="stroke:#2A9FD6;stroke-width:1.0416666666666667;"/><line style="stroke:#2A9FD6;stroke-width:3.125;" x1="129.1667" x2="129.1667" y1="291.5039" y2="326.888"/><polygon fill="#2A9FD6" points="125,316.4714,129.1667,326.888,133.3333,316.4714,129.1667,320.638" style="stroke:#2A9FD6;stroke-width:1.0416666666666667;"/><line style="stroke:#2A9FD6;stroke-width:3.125;" x1="367.1875" x2="367.1875" y1="204.1016" y2="239.4857"/><polygon fill="#2A9FD6" points="363.0208,229.069,367.1875,239.4857,371.3542,229.069,367.1875,233.2357" style="stroke:#2A9FD6;stroke-width:1.0416666666666667;"/><line style="stroke:#2A9FD6;stroke-width:3.125;" x1="367.1875" x2="367.1875" y1="276.9531" y2="312.3372"/><polygon fill="#2A9FD6" points="363.0208,301.9206,367.1875,312.3372,371.3542,301.9206,367.1875,306.0872" style="stroke:#2A9FD6;stroke-width:1.0416666666666667;"/><line style="stroke:#2A9FD6;stroke-width:3.125;" x1="609.375" x2="609.375" y1="204.1016" y2="239.4857"/><polygon fill="#2A9FD6" points="605.2083,229.069,609.375,239.4857,613.5417,229.069,609.375,233.2357" style="stroke:#2A9FD6;stroke-width:1.0416666666666667;"/><line style="stroke:#2A9FD6;stroke-width:3.125;" x1="609.375" x2="609.375" y1="276.9531" y2="312.3372"/><polygon fill="#2A9FD6" points="605.2083,301.9206,609.375,312.3372,613.5417,301.9206,609.375,306.0872" style="stroke:#2A9FD6;stroke-width:1.0416666666666667;"/><line style="stroke:#2A9FD6;stroke-width:3.125;" x1="129.1667" x2="129.1667" y1="135.3841" y2="181.1849"/><polygon fill="#2A9FD6" points="125,170.7682,129.1667,181.1849,133.3333,170.7682,129.1667,174.9349" style="stroke:#2A9FD6;stroke-width:1.0416666666666667;"/><line style="stroke:#2A9FD6;stroke-width:3.125;" x1="129.1667" x2="129.1667" y1="364.3555" y2="385.1888"/><polygon fill="#2A9FD6" points="125,374.7721,129.1667,385.1888,133.3333,374.7721,129.1667,378.9388" style="stroke:#2A9FD6;stroke-width:1.0416666666666667;"/><line style="stroke:#2A9FD6;stroke-width:3.125;" x1="367.1875" x2="367.1875" y1="135.3841" y2="166.6341"/><polygon fill="#2A9FD6" points="363.0208,156.2174,367.1875,166.6341,371.3542,156.2174,367.1875,160.3841" style="stroke:#2A9FD6;stroke-width:1.0416666666666667;"/><line style="stroke:#2A9FD6;stroke-width:3.125;" x1="367.1875" x2="367.1875" y1="349.8047" y2="385.1888"/><polygon fill="#2A9FD6" points="363.0208,374.7721,367.1875,385.1888,371.3542,374.7721,367.1875,378.9388" style="stroke:#2A9FD6;stroke-width:1.0416666666666667;"/><line style="stroke:#2A9FD6;stroke-width:3.125;" x1="609.375" x2="609.375" y1="135.3841" y2="166.6341"/><polygon fill="#2A9FD6" points="605.2083,156.2174,609.375,166.6341,613.5417,156.2174,609.375,160.3841" style="stroke:#2A9FD6;stroke-width:1.0416666666666667;"/><line style="stroke:#2A9FD6;stroke-width:3.125;" x1="609.375" x2="609.375" y1="349.8047" y2="385.1888"/><polygon fill="#2A9FD6" points="605.2083,374.7721,609.375,385.1888,613.5417,374.7721,609.375,378.9388" style="stroke:#2A9FD6;stroke-width:1.0416666666666667;"/><line style="stroke:#2A9FD6;stroke-width:3.125;" x1="213.5417" x2="296.875" y1="122.8841" y2="122.8841"/><polygon fill="#2A9FD6" points="286.4583,118.7174,296.875,122.8841,286.4583,127.0508,290.625,122.8841" style="stroke:#2A9FD6;stroke-width:1.0416666666666667;"/><line style="stroke:#2A9FD6;stroke-width:3.125;" x1="437.5" x2="537.5" y1="122.8841" y2="122.8841"/><polygon fill="#2A9FD6" points="527.0833,118.7174,537.5,122.8841,527.0833,127.0508,531.25,122.8841" style="stroke:#2A9FD6;stroke-width:1.0416666666666667;"/><line style="stroke:#2A9FD6;stroke-width:3.125;" x1="445.3125" x2="445.3125" y1="89.5508" y2="94.7591"/><line style="stroke:#2A9FD6;stroke-width:3.125;" x1="445.3125" x2="129.1667" y1="94.7591" y2="94.7591"/><line style="stroke:#2A9FD6;stroke-width:3.125;" x1="129.1667" x2="129.1667" y1="94.7591" y2="110.3841"/><polygon fill="#2A9FD6" points="125,99.9674,129.1667,110.3841,133.3333,99.9674,129.1667,104.1341" style="stroke:#2A9FD6;stroke-width:1.0416666666666667;"/><line style="stroke:#2A9FD6;stroke-width:3.125;" x1="681.25" x2="808.3333" y1="122.8841" y2="122.8841"/><line style="stroke:#2A9FD6;stroke-width:3.125;" x1="808.3333" x2="808.3333" y1="122.8841" y2="244.6777"/><polygon fill="#2A9FD6" points="804.1667,234.2611,808.3333,244.6777,812.5,234.2611,808.3333,238.4277" style="stroke:#2A9FD6;stroke-width:1.0416666666666667;"/><line style="stroke:#2A9FD6;stroke-width:3.125;" x1="808.3333" x2="808.3333" y1="282.1452" y2="385.1888"/><polygon fill="#2A9FD6" points="804.1667,374.7721,808.3333,385.1888,812.5,374.7721,808.3333,378.9388" style="stroke:#2A9FD6;stroke-width:1.0416666666666667;"/><line style="stroke:#2A9FD6;stroke-width:3.125;" x1="129.1667" x2="808.3333" y1="385.1888" y2="385.1888"/><line style="stroke:#2A9FD6;stroke-width:3.125;" x1="445.3125" x2="445.3125" y1="385.1888" y2="406.0221"/><polygon fill="#2A9FD6" points="441.1458,395.6055,445.3125,406.0221,449.4792,395.6055,445.3125,399.7721" style="stroke:#2A9FD6;stroke-width:1.0416666666666667;"/><line style="stroke:#2A9FD6;stroke-width:3.125;" x1="445.3125" x2="445.3125" y1="443.4896" y2="464.3229"/><polygon fill="#2A9FD6" points="441.1458,453.9063,445.3125,464.3229,449.4792,453.9063,445.3125,458.0729" style="stroke:#2A9FD6;stroke-width:1.0416666666666667;"/><!--SRC=[ZP6nRiCm34HtVGMxELDtUmeQ5FNK04wxgmvZ4v0bGQ8Jk5zVoewQsbEr211FTu_a4_Su8BJJbmkTYgm3gxAsnAGDVIFilJVKQYPdAwNe0iL7n00H3ROSvMvJQGTYOw5ulsBGni3UQZD5YZi5Sie3HM_q1DjojPIRtjtWTRHdiXsS0jfphdnI71UEHe9SU7uXdg2sLumye6NHeOcOi9g4Flfjz36umJFCqEp49d73NLojyRB50LcJMT4rD93H8Kl-v2umBlmlEAitoRycw-X7-u-MuQYPCTWx0XHlRi3DdDEJw3eKZKprebGvSzHMVkgqjnjn3zb-tgxu2O7_0G00]--></g></svg>